<svg width="58" height="59" viewBox="0 0 58 59" fill="none" xmlns="http://www.w3.org/2000/svg">
<circle cx="28.8895" cy="29.0223" r="28.8889" transform="rotate(-180 28.8895 29.0223)" fill="black"/>
<mask id="mask0_80_1492" style="mask-type:alpha" maskUnits="userSpaceOnUse" x="0" y="0" width="58" height="59">
<ellipse cx="29" cy="29.0122" rx="29" ry="29" transform="rotate(-180 29 29.0122)" fill="#F3D102"/>
</mask>
<g mask="url(#mask0_80_1492)">
<path fill-rule="evenodd" clip-rule="evenodd" d="M27.9509 57.9936L28.906 71.5068L29.8608 57.9997C45.4109 57.5464 57.8909 44.8518 57.9993 29.2174L73.9727 28.1736L57.9396 27.1258C56.9884 12.3113 44.9137 0.524137 29.9796 0.0284462L28.906 -15.1597L27.832 0.0353048C12.989 0.62324 1.01423 12.3671 0.0611611 27.1134L-16.1606 28.1735L0.000797153 29.2297C0.11513 44.7952 12.4925 57.4439 27.9509 57.9936Z" fill="black"/>
<path d="M29.0662 71.5068L26.7459 38.6808C26.4321 34.2408 22.8874 30.7149 18.4459 30.4246L-16.0004 28.1735L18.4459 25.9225C22.8874 25.6322 26.4321 22.1063 26.7459 17.6664L29.0662 -15.1597L31.3865 17.6663C31.7003 22.1063 35.245 25.6322 39.6865 25.9225L74.1328 28.1736L39.6865 30.4246C35.245 30.7149 31.7003 34.2408 31.3865 38.6807L29.0662 71.5068Z" fill="white"/>
</g>
<g clip-path="url(#clip0_80_1492)">
<path d="M45.997 46.0122C45.997 46.0122 39.7428 41.159 39.7428 28.5142C39.7428 15.8694 46.001 11.0122 46.001 11.0122C46.001 11.0122 41.1478 17.2704 28.503 17.2704C15.8582 17.2704 11.001 11.0122 11.001 11.0122C11.001 11.0122 17.2591 15.8654 17.2591 28.5102C17.2591 41.155 11.001 46.0122 11.001 46.0122C11.001 46.0122 15.8542 39.754 28.499 39.754C41.1438 39.754 45.997 46.0122 45.997 46.0122Z" fill="white"/>
</g>
<defs>
<clipPath id="clip0_80_1492">
<rect width="35" height="35" fill="white" transform="translate(11.001 11.0122)"/>
</clipPath>
</defs>
</svg>
